TRANSFORMERS (2007) IMDB: http://www.imdb.com/title/tt0418279/
TRANSFORMERS: Revenge Of the Fallen (2009) : http://www.imdb.com/title/tt1055369/

General
Complete name                    : C:TRANSFORMERSTorrent downloaded from
File size                        : 47.0 Bytes

General
Complete name                    : C:TRANSFORMERSTransformers Revenge of the Fallen (2009).mp4
Format                           : MPEG-4
Format profile                   : Base Media / Version 2
Codec ID                         : mp42
File size                        : 1.32 GiB
Duration                         : 2h 29mn
Overall bit rate                 : 1 261 Kbps
Encoded date                     : UTC 2009-12-04 00:28:14
Tagged date                      : UTC 2009-12-04 02:20:17
Writing application              : HandBrake 0.9.4 2009112300

Video
ID                               : 1
Format                           : AVC
Format/Info                      : Advanced Video Codec
Format profile                   : Main@L3.0
Format settings, CABAC           : Yes
Format settings, ReFrames        : 2 frames
Codec ID                         : avc1
Codec ID/Info                    : Advanced Video Coding
Duration                         : 2h 29mn
Bit rate mode                    : Variable
Bit rate                         : 868 Kbps
Width                            : 720 pixels
Height                           : 304 pixels
Display aspect ratio             : 2.35:1
Frame rate mode                  : Variable
Frame rate                       : 23.976 fps
Minimum frame rate               : 11.989 fps
Maximum frame rate               : 29.970 fps
Resolution                       : 24 bits
Colorimetry                      : 4:2:0
Scan type                        : Progressive
Bits/(Pixel*Frame)               : 0.165
Stream size                      : 930 MiB (69%)
Writing library                  : x264 core 79


Audio #1
ID                               : 2
Format                           : AAC
Format/Info                      : Advanced Audio Codec
Format version                   : Version 4
Format profile                   : LC
Format settings, SBR             : No
Codec ID                         : 40
Duration                         : 2h 29mn
Bit rate mode                    : Variable
Bit rate                         : 128 Kbps
Maximum bit rate                 : 200 Kbps
Channel(s)                       : 2 channels
Channel positions                : L R
Sampling rate                    : 48.0 KHz
Resolution                       : 16 bits
Stream size                      : 137 MiB (10%)
Language                         : English
Encoded date                     : UTC 2009-12-04 00:28:14
Tagged date                      : UTC 2009-12-04 02:20:17

Audio #2
ID                               : 3
Format                           : AAC
Format/Info                      : Advanced Audio Codec
Format version                   : Version 4
Format profile                   : LC
Format settings, SBR             : No
Codec ID                         : 40
Duration                         : 2h 29mn
Bit rate mode                    : Variable
Bit rate                         : 128 Kbps
Maximum bit rate                 : 200 Kbps
Channel(s)                       : 2 channels
Channel positions                : L R
Sampling rate                    : 48.0 KHz
Resolution                       : 16 bits
Stream size                      : 137 MiB (10%)
Language                         : French
Encoded date                     : UTC 2009-12-04 00:28:14
Tagged date                      : UTC 2009-12-04 02:20:17

Audio #3
ID                               : 4
Format                           : AAC
Format/Info                      : Advanced Audio Codec
Format version                   : Version 4
Format profile                   : LC
Format settings, SBR             : No
Codec ID                         : 40
Duration                         : 2h 29mn
Bit rate mode                    : Variable
Bit rate                         : 128 Kbps
Maximum bit rate                 : 200 Kbps
Channel(s)                       : 2 channels
Channel positions                : L R
Sampling rate                    : 48.0 KHz
Resolution                       : 16 bits
Stream size                      : 137 MiB (10%)
Language                         : Spanish
Encoded date                     : UTC 2009-12-04 00:28:14
Tagged date                      : UTC 2009-12-04 02:20:17

General
Complete name                    : C:TRANSFORMERSTRANSFORMERS.m4v
Format                           : MPEG-4
Format profile                   : Base Media / Version 2
Codec ID                         : mp42
File size                        : 1.27 GiB
Duration                         : 2h 23mn
Overall bit rate                 : 1 264 Kbps
Encoded date                     : UTC 2009-12-04 08:31:05
Tagged date                      : UTC 2009-12-04 10:13:46
Writing application              : HandBrake 0.9.4 2009112300

Video
ID                               : 1
Format                           : AVC
Format/Info                      : Advanced Video Codec
Format profile                   : Main@L3.0
Format settings, CABAC           : Yes
Format settings, ReFrames        : 2 frames
Codec ID                         : avc1
Codec ID/Info                    : Advanced Video Coding
Duration                         : 2h 23mn
Bit rate mode                    : Variable
Bit rate                         : 872 Kbps
Width                            : 720 pixels
Height                           : 304 pixels
Display aspect ratio             : 2.35:1
Frame rate mode                  : Variable
Frame rate                       : 23.976 fps
Minimum frame rate               : 11.989 fps
Maximum frame rate               : 29.970 fps
Resolution                       : 24 bits
Colorimetry                      : 4:2:0
Scan type                        : Progressive
Bits/(Pixel*Frame)               : 0.166
Stream size                      : 895 MiB (69%)
Writing library                  : x264 core 79


Audio #1
ID                               : 2
Format                           : AAC
Format/Info                      : Advanced Audio Codec
Format version                   : Version 4
Format profile                   : LC
Format settings, SBR             : No
Codec ID                         : 40
Duration                         : 2h 23mn
Bit rate mode                    : Variable
Bit rate                         : 128 Kbps
Maximum bit rate                 : 202 Kbps
Channel(s)                       : 2 channels
Channel positions                : L R
Sampling rate                    : 48.0 KHz
Resolution                       : 16 bits
Stream size                      : 131 MiB (10%)
Language                         : English
Encoded date                     : UTC 2009-12-04 08:31:05
Tagged date                      : UTC 2009-12-04 10:13:46

Audio #2
ID                               : 3
Format                           : AAC
Format/Info                      : Advanced Audio Codec
Format version                   : Version 4
Format profile                   : LC
Format settings, SBR             : No
Codec ID                         : 40
Duration                         : 2h 23mn
Bit rate mode                    : Variable
Bit rate                         : 128 Kbps
Maximum bit rate                 : 201 Kbps
Channel(s)                       : 2 channels
Channel positions                : L R
Sampling rate                    : 48.0 KHz
Resolution                       : 16 bits
Stream size                      : 131 MiB (10%)
Language                         : French
Encoded date                     : UTC 2009-12-04 08:31:05
Tagged date                      : UTC 2009-12-04 10:13:46

Audio #3
ID                               : 4
Format                           : AAC
Format/Info                      : Advanced Audio Codec
Format version                   : Version 4
Format profile                   : LC
Format settings, SBR             : No
Codec ID                         : 40
Duration                         : 2h 23mn
Bit rate mode                    : Variable
Bit rate                         : 128 Kbps
Maximum bit rate                 : 201 Kbps
Channel(s)                       : 2 channels
Channel positions                : L R
Sampling rate                    : 48.0 KHz
Resolution                       : 16 bits
Stream size                      : 131 MiB (10%)
Language                         : Spanish
Encoded date                     : UTC 2009-12-04 08:31:05
Tagged date                      : UTC 2009-12-04 10:13:46

Text
ID                               : 5
Format                           : Apple text
Codec ID                         : text
Duration                         : 2h 23mn
Bit rate mode                    : Variable
Bit rate                         : 1 bps
Stream size                      : 543 Bytes (0%)
Encoded date                     : UTC 2009-12-04 08:31:05
Tagged date                      : UTC 2009-12-04 10:13:46

